<?xml version="1.0" encoding="UTF-8"?>
<!DOCTYPE svg  PUBLIC '-//W3C//DTD SVG 1.1//EN'  'http://www.w3.org/Graphics/SVG/1.1/DTD/svg11.dtd'>
<svg enable-background="new 0 0 268.5 235.5" version="1.1" viewBox="0 0 268.5 235.5" xmlns="http://www.w3.org/2000/svg">
 <path d="m250.5 126.6c0.133-0.782 0.111-1.463-0.019-2.065 0.871-0.461 1.633-0.968 2.263-1.53-6.24-64.177-57.47-102.01-117.24-102.01s-116.16 46.5-117.24 102c0.272 1.136 0.877 2.157 1.771 3.074-0.021 0.32-0.026 0.521-0.026 0.521-8.25 1.113-2.75 5.429-2.75 5.429-0.437 2.069 1.706 2.967 4.256 3.323-1e-3 0.051-6e-3 0.101-6e-3 0.152 0 3.303 1.711 6.102 4.084 7.103-3.863 2.08-6.589 5.96-6.589 10.68v3.259c-0.279 0.226-0.528 0.469-0.745 0.73 2.579 42.502 61.133 67.236 117.3 67.236 56.164 0 113.32-22.003 117.3-67.236-0.469-0.354-1.088-0.673-1.851-0.961v-3.028c0-4.544-2.01-8.316-5.271-10.434 2.724-0.709 4.771-3.726 4.771-7.341 0-0.779-0.096-1.53-0.271-2.236 7.26-2.01 0.26-6.66 0.26-6.66z" stroke="#000" stroke-miterlimit="10" stroke-width="7"/>
 <path d="m250 160.73c0 7.055-4.826 13.274-11.697 13.274h-207.35c-6.874 0-12.95-6.22-12.95-13.27v-7.451c0-7.06 6.076-12.28 12.947-12.28h207.36c6.871 0 11.697 5.219 11.697 12.274v7.46z" fill="#49361f" stroke="#000" stroke-miterlimit="10"/>
 <path d="m17.255 157.26c2.579 42.502 61.133 67.236 117.3 67.236 56.164 0 113.32-22.003 117.3-67.236-6.684-5.056-43.018-3.143-118.35-0.409-70.677 2.19-109.34-7.92-116.26 0.41z" fill="#fed9b9"/>
 <path d="m17.351 157.3c0.48 6.118 2.163 12.064 4.866 17.523 2.688 5.483 6.437 10.388 10.69 14.739 4.272 4.35 9.103 8.131 14.23 11.43 5.138 3.289 10.545 6.156 16.135 8.615 5.588 2.463 11.345 4.542 17.197 6.299 5.851 1.767 11.808 3.166 17.803 4.357 6.002 1.163 12.063 2.021 18.151 2.609 6.085 0.571 12.208 0.932 18.313 0.979 6.151 0.039 12.243-0.193 18.359-0.677 6.105-0.488 12.192-1.234 18.232-2.277 6.035-1.065 12.013-2.455 17.898-4.16 5.887-1.702 11.674-3.76 17.269-6.257 5.596-2.486 11.015-5.382 16.102-8.782 5.074-3.41 9.805-7.344 13.936-11.833 4.128-4.488 7.57-9.6 10.085-15.128 2.518-5.528 4.059-11.484 4.564-17.53l0.264 0.595c-0.86-0.621-2.004-1.009-3.147-1.3-1.146-0.308-2.342-0.499-3.535-0.681-2.4-0.333-4.838-0.507-7.278-0.628-4.883-0.244-9.79-0.252-14.694-0.246-9.813 0.053-19.635 0.354-29.455 0.678l-58.935 2.117c-4.928 0.147-9.834 0.264-14.765 0.285-4.921 0.016-9.843 6e-3 -14.763-0.089-9.84-0.156-19.675-0.542-29.496-1.094-9.821-0.564-19.625-1.337-29.427-1.993-4.901-0.316-9.803-0.646-14.706-0.664-2.449 5e-3 -4.904 0.067-7.324 0.405-0.604 0.087-1.209 0.176-1.799 0.326-0.602 0.112-1.179 0.301-1.755 0.494-1.126 0.41-2.224 0.97-3.022 1.88zm-0.166-0.09c0.809-0.975 1.94-1.584 3.085-2.046 0.584-0.211 1.17-0.417 1.776-0.546 0.599-0.167 1.208-0.271 1.817-0.373 2.441-0.4 4.912-0.521 7.374-0.583 4.928-0.089 9.849 0.102 14.76 0.337 9.823 0.497 19.63 1.11 29.446 1.516 9.813 0.435 19.629 0.735 29.447 0.791 4.909 0.045 9.818 6e-3 14.726-0.058l7.357-0.131 7.359-0.208c19.645-0.713 39.286-1.573 58.945-2.107 9.83-0.27 19.662-0.517 29.509-0.514 4.924 8e-3 9.851 0.08 14.783 0.387 2.466 0.153 4.934 0.357 7.399 0.729 1.231 0.202 2.465 0.414 3.689 0.758 1.22 0.336 2.459 0.737 3.598 1.569l0.301 0.219-0.036 0.377c-0.592 6.187-2.245 12.269-4.884 17.883-2.636 5.615-6.204 10.772-10.447 15.266-4.243 4.501-9.079 8.396-14.222 11.783-5.141 3.4-10.604 6.287-16.237 8.759-5.642 2.46-11.442 4.538-17.335 6.301-5.897 1.749-11.889 3.183-17.94 4.29-6.046 1.135-12.146 1.987-18.272 2.573-6.116 0.585-12.302 0.913-18.432 0.968-6.175 0.035-12.331-0.188-18.471-0.764-6.138-0.563-12.252-1.397-18.312-2.542-6.061-1.144-12.049-2.659-17.949-4.457-5.896-1.81-11.697-3.944-17.331-6.469-5.627-2.53-11.108-5.425-16.25-8.855-5.144-3.419-9.984-7.324-14.254-11.802-4.263-4.467-7.98-9.523-10.545-15.158-2.604-5.593-4.155-11.698-4.474-17.826l-2e-3 -0.039 0.012-0.04z"/>
 <path d="m249.5 135.5c0 4.142-2.687 7.5-6 7.5h-217c-3.313 0-6-3.358-6-7.5s2.687-7.5 6-7.5h217c3.313 0 6 3.358 6 7.5z" fill="#ed1c24" stroke="#000" stroke-miterlimit="10"/>
 <path d="m24.5 124s1.75-8 11.5-1.719c0 0 8.75-5.401 15.5-0.056 0 0 17-12.608 26.75-2.361 0 0 15-12.058 27.75-0.505 0 0 18-15.672 29-1.949 0 0 11.933-10.145 23 1.932 0.153 0.168 7-11.86 13-1.661 0 0 13.75-8.064 20.5 3.069 0 0 16-12.805 24.5-0.835 0 0 13.396-10.618 23 0.417 0 0 11.75-1.114 10.5 6.263 0 0 7.75 5.15-1.5 6.959 0 0-6.25 6.125-15.5 0 0 0-7.75 6.264-19.75 0 0 0-11 5.708-21 0 0 0-17.75 5.568-24 0 0 0-9 9.187-23.25 0 0 0-17 9.466-28.25 0 0 0-20.25 11.695-30.75 0.696 0 0-23.25 8.25-31.75 0 0 0-21 9.75-26 1.114 0 0-12.5 1.392-11.5-3.34 0 0-5.5-4.315 2.75-5.429 0 0 0.25-10.6 5.5-2.6z" fill="#8bc751"/>
 <path d="m24.469 123.78c0.149-0.505 0.353-0.99 0.615-1.445 0.163-0.247 0.313-0.507 0.511-0.73 0.193-0.227 0.383-0.457 0.621-0.641 0.216-0.209 0.463-0.375 0.726-0.523 0.245-0.176 0.532-0.268 0.811-0.376 0.273-0.131 0.574-0.161 0.867-0.218 0.292-0.074 0.59-0.079 0.888-0.07 0.297 5e-3 0.598-0.02 0.888 0.049l0.878 0.146c0.287 0.068 0.564 0.172 0.848 0.257 0.277 0.1 0.573 0.154 0.834 0.292l0.805 0.365c0.265 0.127 0.544 0.229 0.792 0.389l1.524 0.886-0.151-1e-3c0.603-0.356 1.219-0.66 1.855-0.934 0.632-0.279 1.281-0.52 1.94-0.727 0.659-0.205 1.327-0.394 2.01-0.511 0.34-0.065 0.679-0.138 1.025-0.165 0.345-0.032 0.688-0.092 1.035-0.1l1.042-0.022c0.347 0.01 0.693 0.05 1.04 0.074 0.349 0.011 0.688 0.091 1.03 0.158 0.34 0.075 0.689 0.113 1.015 0.242l0.993 0.33c0.319 0.139 0.628 0.303 0.942 0.454l0.468 0.233 0.433 0.294 0.865 0.589-0.232-4e-3c2.003-1.43 4.134-2.646 6.354-3.691 2.22-1.038 4.546-1.88 6.963-2.362 2.408-0.492 4.938-0.584 7.366-0.023 0.599 0.161 1.205 0.315 1.777 0.563 0.588 0.208 1.134 0.515 1.685 0.803 0.526 0.333 1.059 0.658 1.535 1.062 0.508 0.364 0.927 0.828 1.386 1.248l-0.377-0.025c1.021-0.792 2.093-1.466 3.201-2.099 1.11-0.623 2.257-1.182 3.437-1.664 2.357-0.963 4.858-1.627 7.418-1.801 2.554-0.197 5.162 0.138 7.581 1.014 0.607 0.21 1.195 0.477 1.776 0.748 0.571 0.295 1.147 0.582 1.684 0.936 0.557 0.322 1.069 0.709 1.589 1.085s0.99 0.814 1.487 1.219l-0.491-5e-3c1.064-0.901 2.169-1.705 3.314-2.47 1.145-0.762 2.326-1.469 3.545-2.109s2.476-1.213 3.771-1.697c0.648-0.241 1.305-0.456 1.972-0.647 0.669-0.18 1.341-0.356 2.026-0.473 0.68-0.141 1.375-0.216 2.069-0.275 0.696-0.059 1.395-0.057 2.095-0.036 0.698 0.055 1.399 0.11 2.087 0.26 0.348 0.053 0.689 0.136 1.026 0.24 0.336 0.102 0.683 0.172 1.007 0.314l0.983 0.387 0.942 0.476c0.322 0.147 0.601 0.365 0.903 0.545 0.299 0.185 0.595 0.376 0.864 0.603l0.827 0.652 0.763 0.723c0.522 0.47 0.94 1.033 1.415 1.546l-0.668-0.063c0.731-0.603 1.487-1.078 2.273-1.546 0.788-0.455 1.605-0.858 2.445-1.21l1.278-0.485 1.317-0.38c0.439-0.127 0.897-0.178 1.346-0.271 0.448-0.1 0.904-0.146 1.364-0.166 0.458-0.018 0.916-0.09 1.375-0.062l1.378 0.083c0.463-1e-3 0.906 0.152 1.36 0.224 0.445 0.11 0.915 0.14 1.341 0.318 0.856 0.331 1.763 0.557 2.546 1.044l1.213 0.65c0.4 0.223 0.746 0.527 1.121 0.787l1.104 0.813c0.35 0.291 0.661 0.623 0.994 0.933l0.982 0.946 0.246 0.237 8e-3 7e-3c0.279 0.152-0.372-0.198-0.302-0.163 0.058 9e-3 -0.095-0.033-0.219 6e-3 -0.314 0.152-0.184 0.125-0.212 0.122l0.028-0.034 0.091-0.121 0.393-0.538c1.072-1.451 2.277-2.858 3.816-3.943 0.772-0.532 1.642-0.984 2.616-1.183 0.968-0.21 2.031-0.101 2.942 0.3 0.915 0.398 1.677 1.026 2.312 1.719 0.643 0.692 1.164 1.462 1.638 2.249l-0.782-0.204c0.889-0.502 1.771-0.903 2.689-1.275 0.914-0.368 1.85-0.687 2.805-0.944 1.908-0.514 3.903-0.791 5.914-0.675 0.502 0.041 1.003 0.089 1.501 0.181 0.496 0.09 0.994 0.195 1.477 0.353 0.489 0.138 0.958 0.337 1.429 0.53 0.454 0.23 0.916 0.448 1.34 0.732 0.443 0.254 0.834 0.583 1.24 0.889 0.374 0.342 0.77 0.666 1.101 1.048 0.358 0.36 0.668 0.758 0.977 1.157 0.314 0.395 0.566 0.83 0.851 1.243l-0.923-0.164c0.95-0.739 1.91-1.381 2.912-1.999 0.998-0.612 2.026-1.178 3.084-1.689 2.112-1.021 4.354-1.836 6.717-2.213 0.588-0.104 1.187-0.153 1.785-0.195 0.602-0.027 1.204-0.026 1.81 0.02 0.602 0.057 1.209 0.119 1.801 0.269 0.599 0.115 1.178 0.32 1.751 0.53l0.841 0.368 0.802 0.446c0.522 0.314 1.028 0.666 1.491 1.059l0.688 0.6 0.625 0.66c0.432 0.429 0.76 0.935 1.144 1.4l-0.985-0.141c0.46-0.355 0.899-0.653 1.362-0.956 0.46-0.295 0.928-0.578 1.403-0.846 0.951-0.538 1.937-1.016 2.95-1.431 2.024-0.833 4.191-1.392 6.418-1.516 0.557-0.034 1.115-0.024 1.674-2e-3 0.559 0.046 1.118 0.089 1.67 0.199 0.556 0.081 1.099 0.239 1.639 0.391 0.536 0.172 1.066 0.361 1.576 0.601 0.52 0.217 1.005 0.506 1.491 0.782 0.471 0.305 0.948 0.602 1.379 0.958 0.454 0.329 0.857 0.712 1.269 1.088 0.411 0.375 0.77 0.799 1.155 1.197l-0.631-0.252c0.645-0.054 1.243-0.068 1.863-0.066 0.616 4e-3 1.232 0.032 1.849 0.088 1.231 0.119 2.473 0.324 3.685 0.772 0.604 0.224 1.201 0.507 1.761 0.885 0.278 0.193 0.545 0.408 0.795 0.65 0.244 0.249 0.477 0.513 0.67 0.813 0.191 0.295 0.368 0.612 0.482 0.948 0.137 0.329 0.204 0.677 0.267 1.019 0.045 0.345 0.073 0.689 0.056 1.026 0.011 0.344-0.062 0.665-0.092 0.998l-0.335-0.775c0.43 0.294 0.794 0.584 1.168 0.909 0.367 0.324 0.721 0.671 1.049 1.059 0.326 0.389 0.633 0.816 0.868 1.33 0.119 0.253 0.209 0.539 0.267 0.841 0.054 0.306 0.061 0.637-3e-3 0.964-0.065 0.325-0.188 0.646-0.364 0.907-0.167 0.274-0.378 0.495-0.592 0.686-0.432 0.391-0.9 0.632-1.363 0.852-0.932 0.412-1.87 0.649-2.806 0.843l0.407-0.214c-0.322 0.295-0.599 0.515-0.913 0.733-0.304 0.224-0.626 0.412-0.944 0.607-0.33 0.173-0.654 0.36-0.996 0.508-0.345 0.141-0.678 0.312-1.037 0.417-0.355 0.113-0.703 0.251-1.07 0.323-0.365 0.074-0.724 0.194-1.097 0.225-0.37 0.042-0.74 0.109-1.112 0.127l-1.119 0.022c-0.372-0.01-0.741-0.06-1.112-0.089-0.373-0.02-0.735-0.096-1.098-0.176-0.36-0.083-0.731-0.134-1.082-0.248l-1.049-0.347c-0.705-0.22-1.343-0.583-2.016-0.872-0.639-0.348-1.256-0.731-1.884-1.098l1.002-0.047c-0.424 0.319-0.79 0.556-1.2 0.785-0.396 0.238-0.812 0.43-1.224 0.63-0.421 0.174-0.834 0.374-1.269 0.512-0.429 0.155-0.859 0.304-1.302 0.411-0.438 0.126-0.879 0.237-1.329 0.31-0.446 0.086-0.893 0.177-1.346 0.209-0.452 0.036-0.902 0.12-1.356 0.113l-1.36 0.022-1.354-0.096c-0.454-0.017-0.897-0.103-1.343-0.177-0.443-0.083-0.896-0.129-1.331-0.243l-1.307-0.343c-0.876-0.212-1.695-0.583-2.546-0.87-0.418-0.162-0.814-0.299-1.222-0.481l-1.215-0.497h0.838c-0.461 0-0.878 0.342-1.319 0.522-0.437 0.18-0.876 0.311-1.32 0.463-0.886 0.313-1.788 0.553-2.698 0.782-0.455 0.115-0.918 0.189-1.377 0.289-0.458 0.103-0.928 0.146-1.392 0.223-0.464 0.082-0.936 0.11-1.405 0.151-0.469 0.044-0.938 0.084-1.413 0.079-0.473 0-0.945 0.029-1.418 4e-3l-1.42-0.091c-0.473-0.028-0.94-0.131-1.411-0.193-0.472-0.064-0.94-0.144-1.399-0.276l-1.386-0.355-1.345-0.492c-0.456-0.148-0.888-0.349-1.312-0.571l-1.283-0.638 0.771 0.083c-1.028 0.315-2.025 0.583-3.046 0.837-1.017 0.251-2.038 0.481-3.066 0.688-2.056 0.406-4.135 0.725-6.242 0.89-2.105 0.168-4.245 0.194-6.397-0.099-0.538-0.081-1.077-0.162-1.613-0.3-0.537-0.118-1.071-0.285-1.6-0.474-0.529-0.192-1.047-0.435-1.553-0.71l-0.738-0.466-0.694-0.55 1.369-0.046c-0.464 0.439-0.873 0.774-1.337 1.102-0.447 0.338-0.927 0.616-1.396 0.914-0.494 0.25-0.967 0.545-1.48 0.754-0.509 0.219-1.011 0.458-1.543 0.616-0.524 0.178-1.047 0.362-1.592 0.469-0.541 0.122-1.076 0.271-1.629 0.318-0.55 0.054-1.097 0.176-1.65 0.169l-1.657 0.028-1.646-0.153c-0.554-0.027-1.084-0.174-1.622-0.279-0.531-0.13-1.086-0.188-1.597-0.381l-1.555-0.512c-0.528-0.149-1.011-0.399-1.507-0.617l-1.482-0.672c-0.946-0.519-1.871-1.075-2.806-1.613l1.024 0.033c-0.6 0.325-1.161 0.592-1.748 0.863-0.583 0.265-1.17 0.515-1.763 0.753-1.185 0.477-2.392 0.896-3.616 1.263-2.45 0.727-4.982 1.227-7.561 1.399-2.577 0.159-5.21-0.026-7.744-0.735-0.632-0.181-1.258-0.38-1.868-0.632-0.615-0.233-1.208-0.528-1.794-0.827-0.579-0.316-1.152-0.643-1.69-1.023-0.562-0.347-1.054-0.789-1.579-1.186l1.116 0.099c-0.643 0.358-1.254 0.668-1.89 0.976-0.632 0.304-1.267 0.598-1.91 0.874-1.283 0.557-2.588 1.063-3.915 1.514-2.651 0.901-5.391 1.589-8.205 1.907-0.702 0.086-1.411 0.129-2.12 0.167-0.711 0.013-1.422 0.034-2.137-0.013-0.713-0.018-1.427-0.109-2.138-0.201l-1.063-0.183-1.052-0.254c-0.353-0.074-0.692-0.208-1.037-0.316-0.346-0.107-0.687-0.229-1.018-0.379-0.679-0.261-1.317-0.611-1.958-0.956-0.611-0.395-1.237-0.771-1.79-1.244-0.589-0.431-1.085-0.964-1.613-1.461l0.888 0.211c-1.342 0.455-2.663 0.844-4.008 1.211-1.341 0.364-2.691 0.695-4.049 0.991-2.717 0.585-5.468 1.047-8.255 1.272-2.782 0.234-5.611 0.223-8.414-0.235-0.698-0.133-1.397-0.265-2.084-0.47-0.347-0.086-0.688-0.195-1.026-0.322-0.339-0.12-0.68-0.231-1.007-0.389-0.667-0.276-1.307-0.628-1.924-1.013-0.298-0.212-0.604-0.412-0.893-0.637l-0.828-0.727 0.736 0.125c-2.17 0.955-4.358 1.766-6.599 2.48-2.237 0.711-4.517 1.304-6.844 1.703-2.325 0.378-4.715 0.597-7.11 0.25-0.597-0.08-1.191-0.22-1.775-0.392-0.585-0.179-1.153-0.42-1.7-0.711-0.262-0.167-0.533-0.321-0.786-0.502-0.239-0.201-0.488-0.392-0.716-0.604-0.209-0.232-0.427-0.459-0.625-0.699l-0.519-0.779 0.446 0.226c-2.26 0.188-4.508 0.233-6.772-0.019-1.125-0.145-2.265-0.341-3.345-0.845-0.269-0.125-0.534-0.274-0.777-0.465-0.248-0.178-0.476-0.41-0.654-0.68-0.187-0.266-0.294-0.585-0.354-0.905-0.014-0.16-0.019-0.322-0.021-0.481l0.064-0.465 0.113 0.313c-0.317-0.262-0.585-0.537-0.848-0.838-0.258-0.299-0.497-0.623-0.685-0.987-0.196-0.357-0.321-0.773-0.342-1.21 0.04-0.217 7e-3 -0.454 0.123-0.65 0.091-0.203 0.171-0.416 0.332-0.56 0.144-0.157 0.277-0.333 0.458-0.43 0.171-0.11 0.337-0.235 0.513-0.33 0.368-0.139 0.721-0.346 1.101-0.424 0.376-0.089 0.746-0.23 1.127-0.275l1.137-0.188-0.188 0.21c0.045-0.934 0.154-1.851 0.348-2.763 0.099-0.455 0.221-0.907 0.392-1.348 0.087-0.219 0.185-0.437 0.307-0.644 0.123-0.206 0.26-0.411 0.448-0.579 0.179-0.173 0.412-0.312 0.669-0.361 0.257-0.066 0.52-0.011 0.754 0.063 0.232 0.084 0.446 0.203 0.637 0.344 0.201 0.131 0.367 0.299 0.543 0.454 0.615 0.61 1.115 1.31 1.587 2.02zm-0.052 0.28c-0.515-0.752-1.062-1.49-1.714-2.111-0.17-0.143-0.333-0.302-0.52-0.417-0.18-0.128-0.375-0.228-0.573-0.296-0.199-0.057-0.407-0.097-0.598-0.041-0.193 0.041-0.369 0.148-0.515 0.296-0.296 0.294-0.496 0.701-0.649 1.116-0.153 0.418-0.261 0.857-0.348 1.3-0.168 0.886-0.257 1.799-0.282 2.698l-5e-3 0.176-0.184 0.034-1.102 0.206c-0.373 0.052-0.715 0.195-1.073 0.287-0.366 0.082-0.671 0.28-1.009 0.412-0.154 0.087-0.289 0.198-0.435 0.294-0.16 0.086-0.248 0.228-0.359 0.349-0.131 0.114-0.17 0.269-0.236 0.411-0.089 0.137-0.042 0.308-0.079 0.458 0.027 0.318 0.122 0.643 0.298 0.946 0.166 0.306 0.385 0.593 0.626 0.861 0.24 0.265 0.51 0.527 0.782 0.742l0.138 0.108-0.024 0.204-0.042 0.365 0.022 0.353c0.052 0.225 0.125 0.444 0.266 0.632 0.132 0.191 0.304 0.365 0.511 0.505 0.197 0.149 0.425 0.273 0.664 0.376 0.957 0.425 2.051 0.599 3.133 0.712 2.177 0.198 4.411 0.106 6.588-0.123l0.27-0.028 0.177 0.254 0.461 0.663 0.545 0.592c0.199 0.18 0.417 0.339 0.624 0.511 0.221 0.153 0.461 0.282 0.689 0.426 0.484 0.248 0.99 0.456 1.521 0.61 0.532 0.148 1.075 0.269 1.631 0.335 2.225 0.293 4.525 0.058 6.773-0.343 2.252-0.42 4.476-1.031 6.661-1.76 2.18-0.729 4.347-1.57 6.42-2.518l0.384-0.176 0.353 0.3 0.733 0.624c0.257 0.193 0.531 0.364 0.795 0.549 0.554 0.333 1.127 0.64 1.735 0.881 0.295 0.14 0.61 0.236 0.921 0.341 0.309 0.112 0.624 0.208 0.947 0.282 0.634 0.18 1.291 0.293 1.945 0.409 2.639 0.397 5.356 0.359 8.05 0.115 2.698-0.241 5.384-0.713 8.04-1.308 1.328-0.301 2.649-0.637 3.96-1.004 1.307-0.367 2.624-0.769 3.884-1.208l0.476-0.166 0.413 0.377c0.478 0.437 0.922 0.914 1.45 1.29 0.494 0.419 1.055 0.745 1.598 1.093 0.573 0.299 1.141 0.608 1.75 0.835 0.295 0.133 0.602 0.239 0.914 0.332 0.311 0.094 0.614 0.213 0.935 0.277l0.952 0.223 0.969 0.158c0.651 0.077 1.303 0.157 1.964 0.167 0.658 0.039 1.321 0.012 1.982-4e-3 0.663-0.042 1.325-0.086 1.986-0.174 2.646-0.32 5.262-0.997 7.803-1.885 1.271-0.443 2.525-0.942 3.758-1.489 0.617-0.271 1.226-0.56 1.83-0.856 0.599-0.295 1.21-0.613 1.764-0.928l0.553-0.314 0.563 0.413c0.475 0.348 0.915 0.744 1.42 1.046 0.483 0.337 0.997 0.622 1.514 0.9 0.525 0.261 1.054 0.521 1.606 0.724 0.546 0.219 1.106 0.401 1.674 0.563 2.275 0.638 4.683 0.814 7.079 0.667 2.398-0.16 4.789-0.627 7.118-1.318 1.164-0.348 2.315-0.747 3.444-1.201 0.564-0.227 1.124-0.465 1.677-0.716 0.545-0.25 1.11-0.521 1.606-0.791l0.496-0.269 0.529 0.302c0.878 0.501 1.746 1.025 2.63 1.513l1.374 0.622c0.46 0.203 0.908 0.438 1.391 0.571l1.423 0.47c0.469 0.182 0.968 0.225 1.45 0.345 0.486 0.094 0.969 0.234 1.464 0.253l1.476 0.141 1.478-0.027c0.494 0.01 0.978-0.106 1.467-0.15 0.492-0.038 0.966-0.175 1.445-0.282 0.483-0.091 0.946-0.257 1.412-0.415 0.473-0.137 0.916-0.353 1.368-0.544 0.456-0.183 0.872-0.449 1.312-0.667 0.412-0.264 0.84-0.508 1.227-0.802 0.394-0.271 0.788-0.608 1.086-0.884l0.657-0.61 0.712 0.564 0.521 0.412 0.571 0.36c0.402 0.216 0.818 0.415 1.261 0.575 0.443 0.157 0.896 0.302 1.368 0.405 0.464 0.121 0.948 0.193 1.431 0.266 1.942 0.266 3.959 0.249 5.967 0.088 2.011-0.155 4.021-0.468 6.018-0.853 0.998-0.195 1.992-0.412 2.982-0.651 0.984-0.239 1.983-0.502 2.932-0.787l0.378-0.114 0.393 0.197 1.156 0.58c0.381 0.204 0.77 0.389 1.181 0.522l1.213 0.453 1.253 0.327c0.415 0.125 0.841 0.198 1.271 0.258 0.43 0.059 0.853 0.158 1.287 0.184l1.3 0.092c0.435 0.026 0.871-1e-3 1.307 2e-3 0.437 9e-3 0.872-0.027 1.308-0.066 0.436-0.036 0.872-0.061 1.305-0.135 0.433-0.07 0.87-0.11 1.299-0.204 0.43-0.092 0.862-0.166 1.289-0.271 0.854-0.209 1.701-0.446 2.531-0.734 0.416-0.141 0.827-0.292 1.232-0.457 0.4-0.16 0.816-0.342 1.171-0.515l0.411-0.201 0.427 0.202 1.137 0.537c0.381 0.173 0.752 0.373 1.141 0.525 0.789 0.267 1.554 0.624 2.361 0.821l1.204 0.324c0.4 0.109 0.814 0.15 1.221 0.23 0.408 0.07 0.815 0.154 1.229 0.169l1.235 0.097 1.236-0.015c0.413 0.011 0.82-0.067 1.23-0.096 0.412-0.026 0.815-0.107 1.219-0.183 0.408-0.062 0.806-0.161 1.201-0.272 0.401-0.093 0.789-0.227 1.176-0.363 0.393-0.121 0.761-0.3 1.141-0.452 0.366-0.177 0.741-0.346 1.088-0.552 0.349-0.188 0.708-0.427 0.979-0.625l0.481-0.352 0.521 0.304c0.574 0.336 1.14 0.694 1.721 1.017 0.606 0.258 1.187 0.601 1.813 0.795l0.933 0.316c0.312 0.104 0.636 0.145 0.953 0.222 0.318 0.073 0.637 0.145 0.961 0.161 0.323 0.026 0.646 0.075 0.969 0.085l0.971-0.014c0.323-0.013 0.642-0.073 0.964-0.105 0.323-0.021 0.632-0.129 0.949-0.189 0.319-0.057 0.621-0.179 0.931-0.274 0.313-0.087 0.602-0.237 0.902-0.356 0.298-0.126 0.579-0.289 0.867-0.436 0.275-0.169 0.558-0.329 0.816-0.519 0.26-0.174 0.527-0.394 0.721-0.565l0.192-0.171 0.215-0.043c0.86-0.172 1.71-0.391 2.459-0.719 0.362-0.17 0.719-0.358 0.967-0.587 0.127-0.111 0.238-0.229 0.308-0.347 0.083-0.117 0.12-0.236 0.15-0.357 0.058-0.239-6e-3 -0.544-0.148-0.867-0.145-0.323-0.37-0.653-0.632-0.965-0.263-0.313-0.563-0.613-0.883-0.897-0.315-0.279-0.671-0.56-0.997-0.786l-0.375-0.259 0.04-0.517c0.02-0.26 0.086-0.526 0.074-0.781 0.016-0.26-7e-3 -0.509-0.036-0.757-0.046-0.241-0.087-0.485-0.182-0.707-0.073-0.23-0.193-0.439-0.322-0.642-0.52-0.816-1.451-1.389-2.472-1.769-1.026-0.387-2.158-0.585-3.295-0.7-0.57-0.055-1.146-0.083-1.723-0.089-0.571-5e-3 -1.166 8e-3 -1.71 0.051l-0.359 0.028-0.272-0.28c-0.354-0.366-0.683-0.761-1.057-1.104-0.374-0.344-0.74-0.697-1.149-0.995-0.389-0.327-0.817-0.592-1.237-0.87-0.437-0.248-0.869-0.512-1.332-0.706-0.453-0.217-0.926-0.386-1.403-0.543-0.481-0.136-0.964-0.282-1.463-0.355-0.492-0.102-0.996-0.141-1.499-0.187-0.505-0.022-1.011-0.034-1.518-5e-3 -2.029 0.104-4.049 0.608-5.963 1.386-0.958 0.388-1.895 0.836-2.8 1.343-0.453 0.252-0.897 0.519-1.335 0.796-0.43 0.277-0.873 0.577-1.256 0.871l-0.532 0.408-0.454-0.548c-0.349-0.422-0.646-0.893-1.034-1.277l-0.56-0.598-0.612-0.537c-0.41-0.353-0.856-0.665-1.316-0.944l-0.704-0.397-0.74-0.327c-0.506-0.186-1.015-0.372-1.548-0.476-0.524-0.137-1.068-0.193-1.61-0.247-0.544-0.045-1.092-0.047-1.642-0.026-0.55 0.037-1.101 0.079-1.647 0.173-2.193 0.338-4.333 1.1-6.366 2.072-1.018 0.486-2.012 1.028-2.979 1.615-0.962 0.585-1.92 1.224-2.791 1.895l-0.529 0.408-0.394-0.572c-0.262-0.379-0.492-0.785-0.777-1.146-0.281-0.365-0.561-0.73-0.884-1.056-0.298-0.351-0.653-0.639-0.986-0.95-0.364-0.272-0.711-0.572-1.106-0.799-0.376-0.257-0.788-0.451-1.192-0.66-0.421-0.173-0.839-0.355-1.278-0.48-0.433-0.145-0.883-0.24-1.332-0.325-0.451-0.086-0.909-0.132-1.369-0.172-1.844-0.114-3.719 0.132-5.533 0.612-0.908 0.241-1.803 0.541-2.679 0.888-0.869 0.347-1.748 0.745-2.54 1.188l-0.496 0.278-0.286-0.481c-0.867-1.46-1.958-2.874-3.409-3.52-0.718-0.315-1.505-0.402-2.277-0.241-0.774 0.151-1.522 0.526-2.211 0.998-1.382 0.962-2.539 2.282-3.578 3.68l-0.396 0.537-0.109 0.145-0.079 0.094c-0.048 0.018 0.066 0.013-0.271 0.181-0.135 0.047-0.296 0.018-0.255 0.025 0.063 0.038-0.593-0.316-0.318-0.17l-8e-3 -7e-3 -0.233-0.227-0.935-0.907c-0.316-0.297-0.613-0.618-0.944-0.896l-1.041-0.771c-0.354-0.247-0.68-0.54-1.055-0.75l-1.135-0.614c-0.733-0.466-1.576-0.67-2.373-0.987-0.396-0.172-0.833-0.195-1.247-0.301-0.422-0.067-0.833-0.218-1.265-0.215l-1.284-0.083c-0.428-0.031-0.857 0.039-1.286 0.052-0.43 0.014-0.858 0.054-1.28 0.147-0.422 0.085-0.853 0.128-1.269 0.247l-1.248 0.352-1.217 0.454c-0.801 0.331-1.583 0.71-2.337 1.139-0.743 0.435-1.498 0.908-2.143 1.435l-0.348 0.284-0.32-0.348c-0.448-0.487-0.843-1.03-1.334-1.475l-0.716-0.688-0.774-0.617c-0.251-0.216-0.527-0.396-0.807-0.57-0.282-0.169-0.542-0.378-0.842-0.516l-0.878-0.451-0.917-0.366c-0.301-0.136-0.626-0.202-0.94-0.3-0.314-0.1-0.634-0.179-0.96-0.23-0.644-0.146-1.304-0.2-1.963-0.257-0.662-0.024-1.325-0.03-1.988 0.022-0.661 0.053-1.326 0.12-1.98 0.251-0.658 0.107-1.307 0.275-1.954 0.444-0.645 0.181-1.283 0.386-1.914 0.616-1.26 0.463-2.491 1.014-3.687 1.633-1.197 0.619-2.36 1.306-3.488 2.047-1.124 0.741-2.231 1.537-3.25 2.391l-0.241 0.202-0.251-0.207c-0.479-0.393-0.932-0.821-1.431-1.187-0.5-0.366-0.992-0.744-1.527-1.057-0.515-0.345-1.068-0.623-1.616-0.911-0.558-0.264-1.121-0.524-1.704-0.729-2.319-0.854-4.824-1.194-7.299-1.019-2.479 0.154-4.922 0.784-7.235 1.713-1.158 0.465-2.287 1.006-3.379 1.611-1.086 0.611-2.158 1.28-3.135 2.028l-0.191 0.146-0.186-0.171c-0.439-0.404-0.838-0.855-1.324-1.205-0.454-0.391-0.962-0.703-1.464-1.026-0.526-0.278-1.046-0.576-1.609-0.778-0.546-0.242-1.127-0.393-1.703-0.551-2.331-0.554-4.791-0.484-7.155-0.015-2.373 0.458-4.673 1.274-6.875 2.288-2.199 1.018-4.33 2.219-6.305 3.611l-0.113 0.079-0.121-0.083-0.833-0.573-0.417-0.288-0.451-0.227c-0.303-0.147-0.6-0.308-0.907-0.445l-0.958-0.324c-0.314-0.128-0.652-0.166-0.981-0.24-0.331-0.067-0.66-0.147-0.999-0.16-0.337-0.025-0.673-0.067-1.011-0.079l-1.016 0.016c-0.339 5e-3 -0.675 0.063-1.013 0.092-0.338 0.024-0.671 0.094-1.005 0.156-0.67 0.111-1.328 0.292-1.978 0.49-0.65 0.2-1.291 0.433-1.915 0.704-0.625 0.264-1.243 0.565-1.823 0.903l-0.035 0.21-0.077-0.045-1.5-0.884c-0.244-0.16-0.517-0.26-0.777-0.387l-0.789-0.364c-0.257-0.138-0.544-0.191-0.815-0.291-0.275-0.084-0.547-0.188-0.826-0.256l-0.85-0.146c-0.282-0.07-0.57-0.046-0.856-0.053-0.288-0.01-0.573-8e-3 -0.852 0.062-0.28 0.053-0.568 0.079-0.828 0.203-0.266 0.102-0.54 0.187-0.774 0.354-0.25 0.139-0.488 0.295-0.694 0.495-0.229 0.173-0.412 0.394-0.6 0.61-0.19 0.213-0.337 0.463-0.496 0.701-0.29 0.495-0.523 1.029-0.668 1.581l-0.056 0.213-0.125-0.16z" fill="#00a651"/>
 <path d="m251.74 123c-6.24-64.167-57.47-102-117.24-102s-116.16 46.5-117.24 102c3.574 14.932 63.912 10.167 101.91 5.167 38.66-6.67 118.19 7.66 132.57-5.17z" fill="#fed9b9"/>
 <path d="m251.64 122.95c-0.802-7.076-2.161-14.057-4.146-20.869-2.004-6.821-4.58-13.469-7.796-19.793-6.43-12.65-15.427-23.946-26.253-33.068-5.415-4.561-11.284-8.577-17.477-12.006-6.197-3.421-12.701-6.283-19.401-8.579-6.702-2.294-13.608-3.981-20.603-5.142-6.992-1.173-14.083-1.792-21.185-1.851-7.122-0.062-14.184 0.524-21.201 1.732-7.006 1.193-13.898 3.05-20.586 5.469-6.686 2.423-13.185 5.381-19.368 8.905-6.177 3.531-12.06 7.576-17.549 12.098-10.972 9.039-20.325 20.087-27.068 32.567-3.364 6.239-6.051 12.841-7.908 19.667-1.86 6.824-2.881 13.873-2.98 20.933l-0.023-0.217c0.271 1.028 0.853 1.966 1.655 2.75 0.809 0.781 1.794 1.42 2.84 1.967 2.104 1.091 4.455 1.793 6.825 2.359 4.769 1.093 9.705 1.586 14.637 1.885 9.883 0.557 19.826 0.271 29.739-0.279 9.917-0.568 19.825-1.402 29.708-2.473 4.942-0.533 9.879-1.12 14.81-1.757 2.384-0.355 4.949-0.756 7.424-0.997 2.496-0.261 4.995-0.45 7.493-0.591 4.998-0.276 9.997-0.333 14.987-0.304 4.991 0.03 9.978 0.162 14.959 0.342 9.962 0.37 19.908 0.899 29.849 1.428 9.939 0.508 19.882 0.996 29.821 0.951 4.968-0.019 9.941-0.16 14.873-0.721 2.462-0.292 4.918-0.676 7.311-1.316 2.36-0.65 4.73-1.5 6.62-3.09zm0.17 0.13c-1.894 1.689-4.306 2.606-6.684 3.331-2.404 0.705-4.871 1.15-7.344 1.502-4.951 0.683-9.944 0.942-14.929 1.078-9.977 0.208-19.942-0.119-29.896-0.464-9.955-0.348-19.898-0.836-29.842-1.088-9.938-0.256-19.887-0.333-29.778 0.233-2.472 0.145-4.938 0.337-7.394 0.599-2.48 0.25-4.835 0.624-7.374 1.007-4.943 0.65-9.893 1.25-14.85 1.795-9.913 1.078-19.85 1.99-29.819 2.508-9.967 0.497-19.967 0.731-29.971 0.112-4.998-0.332-10.006-0.854-14.944-2.014-2.46-0.604-4.919-1.342-7.238-2.558-1.155-0.608-2.273-1.35-3.247-2.312-0.966-0.962-1.747-2.212-2.085-3.604l-0.026-0.108 3e-3 -0.109c0.188-7.207 1.318-14.376 3.293-21.291 1.972-6.917 4.781-13.58 8.262-19.853 6.96-12.57 16.599-23.508 27.671-32.543 5.542-4.522 11.475-8.56 17.699-12.078 6.22-3.524 12.71-6.579 19.425-9.046 6.712-2.47 13.633-4.376 20.666-5.718 7.021-1.329 14.223-2.042 21.369-2.088 7.166-0.052 14.342 0.462 21.438 1.54 7.094 1.093 14.095 2.802 20.906 5.085s13.433 5.165 19.691 8.704c6.267 3.521 12.201 7.635 17.67 12.298 5.467 4.664 10.479 9.865 14.882 15.54 4.395 5.681 8.199 11.809 11.354 18.249 3.158 6.437 5.67 13.185 7.483 20.107 1.83 6.914 3.021 14.001 3.642 21.101l4e-3 0.054-0.04 0.02z"/>
 <path d="m23.667 152.28s-13.834 5.056 6.5 15.222c0 0 15.616 1.992 17.333-10 0 0 19.333-10.5 24.958-1.012-2.958 17.51 15.738 2.77 15.709 2.69-3.333 6.666 11 16.987 23-5.268 0 0 21.333 24.588 35.333-1.412 0 0 20.333 27 39 0 0 0 20.667 23.667 35 0 0 0 18.667 13.917 25.667 1.523 3.205-4.673-2.435-3.523-4.334-6.523h-212.67s-11.354 0.889-8.427 3 2.924 1.78 2.924 1.78z" fill="#dabd5b" stroke="#fbd873" stroke-miterlimit="10" stroke-width="2"/>
 <path d="m44.313 72.834s-11.509 14.659-5.163 12.369c1e-3 0 5.601-6.958 5.163-12.369z" fill="#997f60"/>
 <path d="m44.5 73.451c-2 1.999-3.188 4.049-4.577 6.178-0.729 1.135-1.487 2.293-2.018 3.516-0.13 0.305-0.273 0.616-0.348 0.928-0.088 0.308-0.131 0.64-0.047 0.877 0.077 0.238 0.336 0.312 0.645 0.308 0.313-0.031 0.625-0.116 0.94-0.216l-0.077 0.053c1.397-1.771 2.644-3.69 3.641-5.727 0.249-0.509 0.48-1.028 0.687-1.557 0.212-0.526 0.392-1.064 0.546-1.611 0.093-0.269 0.133-0.551 0.199-0.827 0.065-0.276 0.214-0.555 0.237-0.838 0.024-0.282 0.171-0.563 0.171-0.848v-0.236zm-0.202-1.22l0.038 1.457c0.016 0.286-0.041 0.568-0.058 0.852-0.016 0.286-0.065 0.567-0.124 0.846s-0.093 0.564-0.179 0.836c-0.141 0.554-0.309 1.1-0.509 1.635-0.194 0.537-0.414 1.065-0.652 1.584-0.955 2.078-2.155 4.032-3.53 5.868l-0.028 0.038-0.047 0.016c-0.331 0.114-0.668 0.217-1.034 0.261-0.193-0.014-0.381 0.02-0.585-0.079-0.104-0.026-0.194-0.087-0.273-0.175-0.094-0.074-0.144-0.168-0.18-0.27-0.148-0.399-0.089-0.783-0.01-1.124 0.075-0.351 0.193-0.679 0.322-1.002 0.521-1.286 1.211-2.471 1.92-3.638 1.436-2.326 3.007-4.552 4.649-6.734l0.28-0.371z"/>
 <path d="m82.122 102.18s-10.874 17.006-5.459 13.746c-1e-3 -0.01 5.273-8.1 5.459-13.75z" fill="#997f60"/>
 <path d="m81.999 103.1c-1.403 2.187-2.78 4.396-4.051 6.661-0.699 1.257-1.379 2.528-1.95 3.839-0.274 0.653-0.552 1.33-0.64 1.997-0.02 0.162-0.013 0.328 0.032 0.433 0.046 0.09 0.109 0.126 0.261 0.118 0.294-0.035 0.622-0.2 0.921-0.374l-0.056 0.054c1.341-2.079 2.552-4.26 3.571-6.523 0.499-1.135 0.976-2.285 1.329-3.477 0.103-0.294 0.171-0.597 0.25-0.897s0.161-0.601 0.209-0.907c0.068-0.3 0.085-0.61 0.124-0.92zm0.123-0.92c-0.039 0.621-0.083 1.243-0.204 1.855-0.041 0.309-0.116 0.612-0.188 0.915-0.073 0.303-0.135 0.609-0.23 0.906-0.326 1.204-0.778 2.369-1.253 3.521-0.972 2.298-2.132 4.51-3.439 6.643l-0.02 0.033-0.036 0.021c-0.318 0.189-0.641 0.382-1.066 0.447-0.204 0.044-0.54-0.071-0.644-0.325-0.1-0.229-0.093-0.438-0.079-0.632 0.086-0.772 0.358-1.452 0.622-2.133 0.552-1.352 1.207-2.646 1.881-3.929 1.36-2.56 2.821-5.056 4.34-7.524l0.366-0.596-0.05 0.79z"/>
 <path d="m62.35 58.619s-9.659 15.361-4.877 12.381c-1e-3 0 4.682-7.309 4.877-12.381z" fill="#997f60"/>
 <path d="m62.208 59.582c-1.222 1.934-2.424 3.885-3.535 5.883-0.621 1.131-1.228 2.273-1.738 3.45-0.246 0.586-0.489 1.192-0.583 1.788-0.011 0.145-0.013 0.285 0.018 0.387 0.047 0.065 0.066 0.118 0.203 0.096 0.246-0.013 0.541-0.185 0.807-0.332l-0.054 0.054c0.597-0.935 1.162-1.901 1.693-2.881 0.538-0.979 1.023-1.982 1.487-2.998 0.243-0.503 0.419-1.033 0.632-1.549l0.307-0.779 0.236-0.803c0.136-0.54 0.357-1.063 0.425-1.618l0.102-0.698zm0.25-1.869l-0.31 2.573c-0.054 0.56-0.261 1.088-0.384 1.634l-0.217 0.813-0.287 0.79c-0.2 0.523-0.365 1.062-0.595 1.573-0.439 1.032-0.901 2.054-1.417 3.051-0.509 1-1.049 1.981-1.631 2.947l-0.021 0.035-0.033 0.019c-0.294 0.165-0.563 0.363-0.971 0.409-0.191 0.055-0.497-0.095-0.58-0.322-0.073-0.211-0.064-0.395-0.057-0.575 0.091-0.69 0.328-1.304 0.564-1.917 0.491-1.216 1.072-2.381 1.668-3.538 1.206-2.306 2.498-4.558 3.842-6.786l0.429-0.706z"/>
 <path d="m62.518 101.08s-9.437 17.675-4.481 14.009c0 0 4.583-8.418 4.481-14.009z" fill="#997f60"/>
 <path d="m62.441 102.06c-1.206 2.25-2.388 4.518-3.467 6.829-0.598 1.293-1.177 2.598-1.653 3.932-0.229 0.665-0.457 1.349-0.52 2.018-0.01 0.162-5e-3 0.33 0.038 0.442 0.044 0.112 0.087 0.125 0.227 0.117 0.277-0.049 0.59-0.248 0.867-0.446l-0.049 0.057c1.168-2.164 2.205-4.414 3.058-6.728 0.416-1.16 0.811-2.333 1.086-3.536 0.14-0.6 0.269-1.206 0.347-1.817 0.045-0.28 0.046-0.57 0.066-0.86zm0.077-0.98c-6e-3 0.618-0.017 1.237-0.1 1.851-0.064 0.615-0.179 1.226-0.305 1.831-0.249 1.214-0.617 2.399-1.007 3.574-0.803 2.346-1.787 4.622-2.916 6.836l-0.017 0.034-0.032 0.023c-0.298 0.215-0.591 0.442-1.02 0.536-0.209 0.068-0.573-0.087-0.636-0.337-0.087-0.222-0.084-0.421-0.08-0.614 0.056-0.76 0.275-1.45 0.493-2.139 0.454-1.371 1.006-2.697 1.577-4.013 1.153-2.628 2.405-5.203 3.713-7.757l0.339-0.662-9e-3 0.84z"/>
 <path d="m100.41 108.87s-9.352 16.65-4.253 13.297c0-1e-3 4.548-7.926 4.253-13.297z" fill="#997f60"/>
 <path d="m100.5 109.69c-1 2.169-2.467 4.362-3.552 6.603-0.588 1.23-1.181 2.473-1.636 3.748-0.21 0.633-0.45 1.299-0.458 1.92 3e-3 0.336 0.084 0.502 0.359 0.448 0.276-0.036 0.573-0.219 0.854-0.384l-0.057 0.058c1.153-2.032 2.169-4.159 2.99-6.355 0.206-0.549 0.394-1.105 0.566-1.665 0.175-0.561 0.328-1.126 0.457-1.699 0.077-0.284 0.118-0.574 0.172-0.863 0.053-0.289 0.157-0.577 0.179-0.87 0.024-0.292 0.126-0.583 0.126-0.877v-0.08zm-0.1-1.59l0.022 1.655c5e-3 0.294-0.039 0.586-0.056 0.88-0.015 0.295-0.063 0.585-0.109 0.876-0.047 0.291-0.082 0.584-0.152 0.87-0.115 0.578-0.255 1.15-0.417 1.717-0.16 0.567-0.335 1.13-0.529 1.687-0.771 2.229-1.736 4.384-2.853 6.47l-0.02 0.038-0.035 0.021c-0.303 0.184-0.591 0.391-0.997 0.463-0.177 0.05-0.487 9e-3 -0.637-0.207-0.144-0.195-0.168-0.411-0.175-0.596-4e-3 -0.753 0.22-1.411 0.419-2.077 0.434-1.317 0.976-2.583 1.539-3.837 1.137-2.504 2.379-4.95 3.682-7.372l0.32-0.59z"/>
 <path d="m154.63 36.065s0.18 17.421 3.327 12.124c0 0 0.01-8.346-3.327-12.124z" fill="#997f60"/>
 <path d="m155.01 36.578c0.021 2.349 0.102 4.705 0.317 7.042 0.123 1.251 0.273 2.508 0.577 3.712 0.078 0.299 0.167 0.596 0.283 0.874 0.108 0.281 0.265 0.542 0.449 0.7 0.183 0.151 0.394 0.087 0.615-0.102 0.209-0.195 0.384-0.445 0.552-0.702l-0.023 0.087c-0.015-2.112-0.217-4.245-0.658-6.321-0.109-0.519-0.238-1.035-0.389-1.544-0.146-0.511-0.32-1.013-0.519-1.506-0.085-0.252-0.214-0.486-0.322-0.729-0.109-0.243-0.226-0.482-0.368-0.707s-0.255-0.469-0.42-0.678l-0.1-0.126zm-0.77-1.003l0.889 1.117c0.171 0.206 0.291 0.447 0.439 0.668 0.149 0.222 0.272 0.459 0.389 0.7 0.115 0.241 0.251 0.473 0.344 0.724 0.213 0.491 0.401 0.991 0.562 1.502 0.165 0.508 0.31 1.024 0.435 1.544 0.499 2.083 0.761 4.212 0.832 6.36l2e-3 0.046-0.025 0.042c-0.172 0.279-0.351 0.556-0.601 0.801-0.144 0.112-0.279 0.233-0.494 0.279-0.202 0.053-0.44-0.013-0.597-0.131-0.304-0.242-0.473-0.552-0.604-0.852-0.137-0.303-0.238-0.612-0.328-0.923-0.35-1.244-0.532-2.508-0.691-3.771-0.302-2.53-0.455-5.064-0.535-7.609l-0.02-0.497z"/>
 <path d="m103.56 34.994s-9.79 12.339-5.806 10.073c0 0 4.721-5.867 5.806-10.073z" fill="#997f60"/>
 <path d="m103.15 36.133c-1.151 1.438-2.297 2.884-3.386 4.368-0.654 0.898-1.299 1.805-1.885 2.741-0.289 0.468-0.575 0.947-0.777 1.437-0.115 0.224-0.117 0.564-0.099 0.477 0.149 0.015 0.441-0.118 0.664-0.241l-0.05 0.042c0.609-0.751 1.198-1.527 1.766-2.315 0.572-0.787 1.11-1.596 1.634-2.415 0.27-0.405 0.496-0.835 0.746-1.252 0.253-0.416 0.487-0.842 0.689-1.284 0.201-0.442 0.455-0.863 0.613-1.323l0.08-0.235zm0.76-2.217l-0.804 2.469c-0.145 0.467-0.386 0.895-0.575 1.344-0.19 0.451-0.412 0.885-0.653 1.31-0.238 0.426-0.454 0.866-0.711 1.28-0.502 0.838-1.018 1.667-1.569 2.474-0.547 0.81-1.113 1.604-1.708 2.384l-0.021 0.028-0.028 0.014c-0.263 0.132-0.477 0.311-0.893 0.308-0.119-0.011-0.265-0.117-0.305-0.241-0.043-0.119-0.034-0.21-0.028-0.296 0.02-0.168 0.066-0.311 0.114-0.451 0.208-0.549 0.485-1.039 0.766-1.528 0.569-0.972 1.19-1.903 1.822-2.827 1.27-1.844 2.592-3.643 3.949-5.422l0.63-0.846z"/>
 <path d="m186.1 59.882s14.052 18.157 6.866 15.186c0 0-6.82-8.623-6.87-15.186z" fill="#997f60"/>
 <path d="m186.06 59.203l0.336 0.449c1.994 2.67 3.913 5.387 5.691 8.207 0.88 1.415 1.739 2.847 2.438 4.377 0.172 0.384 0.333 0.774 0.464 1.181 0.121 0.41 0.247 0.826 0.212 1.3-0.018 0.229-0.102 0.509-0.33 0.684-0.228 0.173-0.494 0.188-0.718 0.174-0.46-0.032-0.86-0.189-1.253-0.349l-0.044-0.018-0.025-0.035c-1.69-2.274-3.191-4.675-4.436-7.213-0.312-0.633-0.601-1.279-0.867-1.932-0.271-0.653-0.509-1.317-0.716-1.992-0.121-0.332-0.189-0.68-0.28-1.021s-0.177-0.683-0.222-1.034c-0.048-0.35-0.135-0.694-0.15-1.046l-0.061-1.055-0.04-0.677zm0.1 1.373l0.028 0.359c0.022 0.351 0.116 0.693 0.171 1.041 0.053 0.348 0.146 0.688 0.242 1.025s0.173 0.682 0.3 1.011c0.22 0.668 0.471 1.324 0.753 1.968 0.278 0.645 0.579 1.281 0.901 1.905 1.287 2.497 2.836 4.864 4.552 7.076l-0.069-0.052c0.375 0.146 0.768 0.283 1.14 0.298 0.396 0.032 0.628-0.148 0.637-0.521 0.023-0.359-0.094-0.759-0.218-1.137-0.131-0.381-0.294-0.756-0.47-1.126-0.71-1.479-1.591-2.884-2.493-4.269-1.71-2.599-3.57-5.115-5.47-7.578z"/>
 <path d="m222.1 100.88s14.052 18.157 6.866 15.186c0 0-6.82-8.63-6.87-15.19z" fill="#997f60"/>
 <path d="m222.06 100.2l0.336 0.449c1.994 2.67 3.913 5.387 5.691 8.207 0.88 1.415 1.739 2.847 2.438 4.377 0.172 0.384 0.333 0.774 0.464 1.181 0.121 0.41 0.247 0.826 0.212 1.3-0.018 0.229-0.102 0.509-0.33 0.684-0.228 0.173-0.494 0.188-0.718 0.174-0.46-0.032-0.86-0.189-1.253-0.349l-0.044-0.018-0.025-0.035c-1.69-2.274-3.191-4.675-4.436-7.213-0.312-0.633-0.601-1.279-0.867-1.932-0.271-0.653-0.509-1.317-0.716-1.992-0.121-0.332-0.189-0.68-0.28-1.021s-0.177-0.683-0.222-1.034c-0.048-0.35-0.135-0.694-0.15-1.046l-0.061-1.055-0.04-0.68zm0.1 1.38l0.028 0.359c0.022 0.351 0.116 0.693 0.171 1.041 0.053 0.348 0.146 0.688 0.242 1.025s0.173 0.682 0.3 1.011c0.22 0.668 0.471 1.324 0.753 1.968 0.278 0.645 0.579 1.281 0.901 1.905 1.287 2.497 2.836 4.864 4.552 7.076l-0.069-0.052c0.375 0.146 0.768 0.283 1.14 0.298 0.396 0.032 0.628-0.148 0.637-0.521 0.023-0.359-0.094-0.759-0.218-1.137-0.131-0.381-0.294-0.756-0.47-1.126-0.71-1.479-1.591-2.884-2.493-4.269-1.71-2.59-3.57-5.11-5.47-7.57z"/>
 <path d="m191.03 95.432s11.875 19.65 5.078 15.874c0 0-5.785-9.349-5.078-15.874z" fill="#997f60"/>
 <path d="m191.07 94.753l0.282 0.485c1.675 2.881 3.269 5.8 4.712 8.806 0.712 1.506 1.401 3.028 1.919 4.628 0.127 0.401 0.242 0.807 0.325 1.227 0.073 0.42 0.15 0.849 0.062 1.316-0.044 0.226-0.159 0.494-0.406 0.641-0.246 0.146-0.513 0.13-0.733 0.091-0.453-0.084-0.833-0.287-1.205-0.49l-0.041-0.022-0.021-0.038c-1.418-2.453-2.634-5.01-3.578-7.674-0.236-0.665-0.45-1.339-0.639-2.019-0.194-0.68-0.355-1.367-0.483-2.062-0.082-0.343-0.11-0.697-0.161-1.045-0.051-0.35-0.097-0.699-0.103-1.053-7e-3 -0.353-0.054-0.705-0.028-1.057l0.061-1.055 0.04-0.685zm-0.07 1.374l-0.013 0.36c-0.018 0.351 0.036 0.702 0.05 1.053 0.013 0.352 0.065 0.7 0.123 1.047s0.094 0.697 0.182 1.038c0.142 0.689 0.316 1.369 0.522 2.042 0.203 0.673 0.429 1.339 0.677 1.996 0.992 2.628 2.259 5.157 3.71 7.552l-0.063-0.06c0.355 0.188 0.729 0.369 1.098 0.426 0.39 0.077 0.64-0.075 0.692-0.444 0.063-0.354-7e-3 -0.765-0.087-1.154-0.086-0.394-0.205-0.785-0.337-1.172-0.536-1.55-1.25-3.048-1.986-4.527-1.39-2.8-2.94-5.507-4.56-8.173z"/>
 <path d="m213.03 71.432s11.875 19.65 5.078 15.874c0 0-5.785-9.349-5.078-15.874z" fill="#997f60"/>
 <path d="m213.07 70.753l0.282 0.485c1.675 2.881 3.269 5.8 4.712 8.806 0.712 1.506 1.401 3.028 1.919 4.628 0.127 0.401 0.242 0.807 0.325 1.227 0.073 0.42 0.15 0.849 0.062 1.316-0.044 0.226-0.159 0.494-0.406 0.641-0.246 0.146-0.513 0.13-0.733 0.091-0.453-0.084-0.833-0.287-1.205-0.49l-0.041-0.022-0.021-0.038c-1.418-2.453-2.634-5.01-3.578-7.674-0.236-0.665-0.45-1.339-0.639-2.019-0.194-0.68-0.355-1.367-0.483-2.062-0.082-0.343-0.11-0.697-0.161-1.045-0.051-0.35-0.097-0.699-0.103-1.053-7e-3 -0.353-0.054-0.705-0.028-1.057l0.061-1.055 0.04-0.679zm-0.07 1.374l-0.013 0.36c-0.018 0.351 0.036 0.702 0.05 1.053 0.013 0.352 0.065 0.7 0.123 1.047s0.094 0.697 0.182 1.038c0.142 0.689 0.316 1.369 0.522 2.042 0.203 0.673 0.429 1.339 0.677 1.996 0.992 2.628 2.259 5.157 3.71 7.552l-0.063-0.06c0.355 0.188 0.729 0.369 1.098 0.426 0.39 0.077 0.64-0.075 0.692-0.444 0.063-0.354-7e-3 -0.765-0.087-1.154-0.086-0.394-0.205-0.785-0.337-1.172-0.536-1.55-1.25-3.048-1.986-4.527-1.39-2.779-2.94-5.491-4.56-8.157z"/>
 <path d="m201.14 83.079s8.405 15.259 3.461 12.407c0 0-4.1-7.257-3.46-12.407z" fill="#997f60"/>
 <path d="m201.19 82.379l0.272 0.519c1.183 2.255 2.302 4.535 3.303 6.878 0.495 1.173 0.967 2.359 1.314 3.6 0.085 0.311 0.157 0.627 0.214 0.95 0.039 0.328 0.096 0.653 0.025 1.017-0.033 0.172-0.094 0.383-0.277 0.526-0.168 0.147-0.411 0.171-0.585 0.142-0.373-0.048-0.659-0.218-0.949-0.374l-0.042-0.022-0.022-0.042c-1.015-1.943-1.86-3.96-2.502-6.048-0.308-1.046-0.583-2.105-0.733-3.187-0.052-0.268-0.061-0.542-0.093-0.813s-0.053-0.542-0.05-0.815c3e-3 -0.272-0.026-0.545 3e-3 -0.816l0.065-0.813 0.07-0.702zm-0.09 1.443l-4e-3 0.071c-0.021 0.271 0.015 0.543 0.02 0.814 4e-3 0.271 0.031 0.542 0.07 0.811 0.04 0.269 0.055 0.54 0.114 0.805 0.178 1.071 0.479 2.117 0.813 3.148 0.69 2.054 1.59 4.044 2.639 5.93l-0.063-0.064c0.268 0.138 0.551 0.282 0.812 0.304 0.271 0.037 0.39-0.096 0.436-0.37 0.049-0.264-6e-3 -0.577-0.051-0.873-0.061-0.3-0.138-0.6-0.228-0.898-0.368-1.192-0.865-2.355-1.386-3.502-0.97-2.102-2.05-4.152-3.17-6.176z"/>
 <path d="m171.03 103.43s11.875 19.65 5.078 15.874c0 0-5.785-9.349-5.078-15.874z" fill="#997f60"/>
 <path d="m171.07 102.75l0.282 0.485c1.675 2.881 3.269 5.8 4.712 8.806 0.712 1.506 1.401 3.028 1.919 4.628 0.127 0.401 0.242 0.807 0.325 1.227 0.073 0.42 0.15 0.849 0.062 1.316-0.044 0.226-0.159 0.494-0.406 0.641-0.246 0.146-0.513 0.13-0.733 0.091-0.453-0.084-0.833-0.287-1.205-0.49l-0.041-0.022-0.021-0.038c-1.418-2.453-2.634-5.01-3.578-7.674-0.236-0.665-0.45-1.339-0.639-2.019-0.194-0.68-0.355-1.367-0.483-2.062-0.082-0.343-0.11-0.697-0.161-1.045-0.051-0.35-0.097-0.699-0.103-1.053-7e-3 -0.353-0.054-0.705-0.028-1.057l0.061-1.055 0.04-0.71zm-0.07 1.38l-0.013 0.36c-0.018 0.351 0.036 0.702 0.05 1.053 0.013 0.352 0.065 0.7 0.123 1.047s0.094 0.697 0.182 1.038c0.142 0.689 0.316 1.369 0.522 2.042 0.203 0.673 0.429 1.339 0.677 1.996 0.992 2.628 2.259 5.157 3.71 7.552l-0.063-0.06c0.355 0.188 0.729 0.369 1.098 0.426 0.39 0.077 0.64-0.075 0.692-0.444 0.063-0.354-7e-3 -0.765-0.087-1.154-0.086-0.394-0.205-0.785-0.337-1.172-0.536-1.55-1.25-3.048-1.986-4.527-1.39-2.8-2.94-5.51-4.56-8.17z"/>
 <path d="m115.19 107.82s-4.547 22.504 0.577 16.656c0 1e-3 2.291-10.752-0.577-16.656z" fill="#997f60"/>
 <path d="m115.45 108.46c-0.617 3.053-1.163 6.129-1.547 9.219-0.195 1.641-0.361 3.292-0.343 4.932 7e-3 0.409 0.027 0.818 0.079 1.218 0.057 0.393 0.129 0.803 0.309 1.115 0.173 0.33 0.461 0.388 0.801 0.184 0.327-0.178 0.618-0.475 0.89-0.771l-0.039 0.077c0.558-2.743 0.896-5.552 0.943-8.36 0.013-0.702 0-1.406-0.036-2.107-0.033-0.703-0.098-1.402-0.197-2.098-0.032-0.351-0.117-0.693-0.179-1.039-0.063-0.346-0.13-0.691-0.238-1.027-0.105-0.335-0.173-0.684-0.308-1.008l-0.12-0.32zm-0.52-1.27l0.68 1.599c0.142 0.323 0.217 0.67 0.329 1.004 0.114 0.334 0.189 0.679 0.259 1.025 0.07 0.345 0.162 0.688 0.201 1.039 0.114 0.697 0.194 1.398 0.241 2.104 0.051 0.704 0.078 1.41 0.08 2.116 0.01 2.827-0.271 5.644-0.778 8.432l-8e-3 0.043-0.031 0.035c-0.282 0.317-0.57 0.636-0.969 0.868-0.194 0.111-0.44 0.216-0.721 0.162-0.282-0.055-0.481-0.269-0.599-0.466-0.242-0.41-0.313-0.839-0.386-1.26-0.063-0.422-0.093-0.844-0.108-1.264-0.053-1.682 0.082-3.347 0.244-5.004 0.344-3.316 0.86-6.602 1.464-9.879l0.12-0.55z"/>
 <path d="m129.96 35.098s-4.957 19.184-0.87 14.486c0 0 2.452-9.157 0.87-14.486z" fill="#997f60"/>
 <path d="m130.13 36.005c-0.641 2.466-1.25 4.947-1.745 7.445-0.267 1.387-0.513 2.78-0.643 4.177-0.053 0.692-0.105 1.41 0.02 2.054l0.065 0.225 0.099 0.166c0.076 0.041 0.144 0.098 0.285 0.015 0.263-0.104 0.513-0.375 0.746-0.617l-0.037 0.069c0.617-2.348 1.079-4.752 1.336-7.173 0.117-1.212 0.209-2.43 0.171-3.649 5e-3 -0.305-0.025-0.608-0.043-0.913-0.019-0.304-0.036-0.609-0.085-0.91-0.03-0.301-0.11-0.593-0.17-0.889zm-0.17-0.907c0.156 0.59 0.308 1.183 0.385 1.791 0.057 0.301 0.081 0.605 0.107 0.91 0.025 0.305 0.063 0.609 0.064 0.915 0.067 1.223 4e-3 2.448-0.085 3.667-0.201 2.441-0.606 4.858-1.174 7.248l-9e-3 0.041-0.027 0.028c-0.252 0.266-0.476 0.557-0.871 0.735-0.168 0.116-0.507 0.093-0.696-0.092-0.071-0.088-0.13-0.187-0.184-0.282l-0.091-0.284c-0.161-0.748-0.115-1.465-0.081-2.182 0.099-1.43 0.314-2.838 0.55-4.242 0.486-2.804 1.085-5.58 1.749-8.347l0.161-0.672 0.21 0.766z"/>
 <path d="m37.647 98.536s-11.404 18.037-5.208 14.636c0-1e-3 5.545-8.58 5.208-14.636z" fill="#997f60"/>
 <path d="m37.637 99.288c-1.526 2.41-3.013 4.854-4.364 7.365-0.719 1.352-1.416 2.722-1.965 4.14-0.257 0.702-0.529 1.451-0.508 2.143 0.018 0.361 0.191 0.517 0.543 0.465 0.334-0.044 0.684-0.208 1.013-0.38l-0.062 0.058c1.397-2.199 2.635-4.521 3.633-6.938 0.251-0.604 0.48-1.217 0.691-1.836 0.213-0.619 0.399-1.246 0.556-1.881 0.094-0.314 0.143-0.638 0.209-0.958s0.13-0.642 0.157-0.968c0.029-0.325 0.092-0.649 0.094-0.977l3e-3 -0.225zm5e-3 -1.464l0.014 1.696c6e-3 0.328-0.05 0.654-0.072 0.981-0.02 0.329-0.077 0.652-0.136 0.975-0.06 0.323-0.102 0.65-0.189 0.967-0.144 0.642-0.317 1.275-0.517 1.901-0.198 0.626-0.415 1.248-0.653 1.86-0.952 2.453-2.139 4.805-3.504 7.062l-0.021 0.036-0.041 0.022c-0.346 0.188-0.699 0.375-1.13 0.445-0.208 0.031-0.478 0.027-0.695-0.151-0.213-0.18-0.272-0.437-0.292-0.645-0.033-0.431 0.047-0.825 0.138-1.21 0.096-0.383 0.215-0.756 0.346-1.123 0.531-1.465 1.203-2.859 1.898-4.238 1.404-2.752 2.938-5.425 4.543-8.064l0.311-0.522z"/>
 <path d="m55.777 81.875s-11.805 15.005-4.456 12.723c1e-3 0 5.769-7.121 4.456-12.723z" fill="#997f60"/>
 <path d="m55.853 82.397c-1.658 2.111-3.256 4.289-4.667 6.57-0.726 1.194-1.429 2.423-1.866 3.726-0.098 0.325-0.182 0.657-0.192 0.978-0.028 0.327 0.062 0.624 0.27 0.787 0.207 0.176 0.549 0.203 0.875 0.175 0.333-0.021 0.666-0.114 0.999-0.197l-0.081 0.055c0.716-0.889 1.366-1.848 1.966-2.827 0.595-0.984 1.148-1.998 1.592-3.061 0.225-0.529 0.434-1.067 0.603-1.617 0.181-0.547 0.314-1.107 0.422-1.673 0.069-0.28 0.074-0.57 0.114-0.855 0.043-0.286 0.059-0.573 0.046-0.862-0.015-0.287 0.026-0.58-0.034-0.863l-0.047-0.336zm-0.162-1.032l0.23 1.365c0.066 0.284 0.033 0.577 0.055 0.865 0.02 0.29 0.012 0.58-0.024 0.868-0.034 0.288-0.032 0.581-0.095 0.864-0.095 0.573-0.215 1.14-0.384 1.696-0.157 0.558-0.354 1.106-0.567 1.645-0.422 1.083-0.955 2.118-1.53 3.125-0.584 1.005-1.21 1.98-1.922 2.911l-0.032 0.041-0.05 0.014c-0.349 0.096-0.695 0.202-1.069 0.237-0.361 0.035-0.786 0.038-1.144-0.229-0.356-0.264-0.472-0.737-0.447-1.104 5e-3 -0.385 0.089-0.745 0.186-1.097 0.43-1.39 1.115-2.646 1.821-3.877 1.437-2.454 3.058-4.775 4.764-7.045l0.208-0.279z"/>
 <path d="m37.662 194.74s130.09 2.756 196.75-0.383c-14.91 15.64-116.91 58.64-196.75 0.38z" fill="#fbb885" opacity=".3"/>
 <path d="m133 104.5c3-5.75-2-37.25 16.75-6.712 0 0-14.084 5.304-16.75 6.712z" fill="#f00"/>
 <path d="m133 104.5c0.25-0.794 0.266-1.61 0.303-2.419 0.023-0.812-5e-3 -1.627-0.021-2.442l-0.09-2.456c0.064-0.814 0.151-1.63 0.204-2.453 0.132-1.644 0.277-3.297 0.552-4.97 0.14-0.836 0.312-1.678 0.569-2.528 0.277-0.845 0.593-1.727 1.324-2.556 0.363-0.406 0.898-0.787 1.524-0.935 0.622-0.152 1.245-0.078 1.747 0.084 1.01 0.337 1.753 0.893 2.437 1.457 1.344 1.151 2.431 2.442 3.47 3.757 2.06 2.64 3.848 5.421 5.585 8.227 0.289 0.468 0.146 1.083-0.323 1.373-0.052 0.032-0.106 0.059-0.161 0.081l-0.016 6e-3 -8.41 3.235c-0.348 0.14-0.701 0.269-1.045 0.418-0.339 0.164-0.69 0.295-1.061 0.377l-2.196 0.569c-1.45 0.38-2.92 0.74-4.38 1.17zc0.627-0.414 1.257-0.882 1.914-1.259 0.654-0.386 1.304-0.799 1.968-1.167l1.989-1.118c0.326-0.202 0.677-0.339 1.037-0.452 0.355-0.126 0.703-0.273 1.054-0.408l8.436-3.245-0.5 1.459c-1.712-2.766-3.478-5.509-5.454-8.039-0.988-1.256-2.033-2.479-3.184-3.461-0.569-0.481-1.189-0.897-1.741-1.076-0.571-0.153-0.827-0.094-1.205 0.293-0.368 0.401-0.667 1.086-0.886 1.793-0.218 0.719-0.377 1.486-0.507 2.266-0.257 1.563-0.401 3.178-0.531 4.801-0.076 0.812-0.108 1.629-0.168 2.45-0.141 0.814-0.328 1.628-0.506 2.443-0.18 0.815-0.399 1.629-0.655 2.433-0.25 0.8-0.58 1.61-1.06 2.29z"/>
 <g stroke="#000" stroke-miterlimit="10">
  <g fill="none">
   <path d="m139.63 89.61s4.373 8.178 0.555 13.711" stroke-linejoin="round" stroke-width="1.344"/>
   <path d="m93.743 91.162c21.527 23.88 54.538 16.457 66.764-3.246" stroke-linecap="round" stroke-width="4"/>
  </g>
  <path d="m73.75 79.588s13.75-14.171 34.25-7.255c0 0-23-44.406-34.25 7.255z" fill="#fff" stroke-linejoin="round" stroke-width="2"/>
 </g>
 <path d="m106.56 69.808c0 3.535-8.688 0.671-11.861 0.671s-5.746-2.866-5.746-6.4 2.572-6.4 5.746-6.4c3.175-1e-3 11.861 8.594 11.861 12.129z"/>
 <g stroke="#000" stroke-linejoin="round" stroke-miterlimit="10" stroke-width="2">
  <path d="m73.75 79.588s13.75-14.171 34.25-7.255c0 0-23-44.406-34.25 7.255z" fill="none"/>
  <path d="m183 76.588s-13.75-14.171-34.25-7.255c0 0 23-44.406 34.25 7.255z" fill="#fff"/>
 </g>
 <path d="m182.56 74.658c0 3.535-8.817-4.544-12.063-5.992-2.898-1.293-5.872-2.068-5.545-5.588 1.076-6.272 3.514-6.839 8.919-6.4 4.79 1.822 8.68 14.446 8.68 17.98z"/>
 <path d="m183 76.588s-13.75-14.171-34.25-7.255c0 0 23-44.406 34.25 7.255z" fill="none" stroke="#000" stroke-linejoin="round" stroke-miterlimit="10" stroke-width="2"/>
 <g fill="#fff">
  <polygon points="87.5 61.5 87.5 67.5 94 64.192"/>
  <polygon points="164.5 58.5 164.5 64.5 171 61.192"/>
 </g>
 <g fill="none" stroke="#000" stroke-miterlimit="10">
  <g stroke-linecap="round">
   <path d="m163.76 79.52s-10.696 14.768 9.99 15.547" stroke-width="4.547"/>
   <path d="m93 83.61s4.161 11.178-5.044 16.409" stroke-width="4"/>
  </g>
  <g stroke-linejoin="round" stroke-width="1.344">
   <path d="m80.143 79.588s11.396-10.697 24.376-2.559"/>
   <path d="m152.5 73.975s13.849-5.631 27.091 5.614"/>
  </g>
 </g>
</svg>
